<svg width="79" height="79" fill="none" xmlns="http://www.w3.org/2000/svg"><path d="M15.339 51.425a4.166 4.166 0 100 8.331 4.166 4.166 0 000-8.33zm0 6.172a2.006 2.006 0 110-4.01 2.006 2.006 0 010 4.01zm48.322-6.172a4.166 4.166 0 100 8.332 4.166 4.166 0 000-8.332zm0 6.172a2.006 2.006 0 110-4.01 2.006 2.006 0 010 4.01z" fill="#8A1A10"/><path d="M75.77 44.2a1.08 1.08 0 00.297-.797 11.016 11.016 0 00-.53-2.672c-.632-1.895-2.624-3.12-5.074-3.12-1.473 0-4.144-.01-5.363-.014l-2.41-4.422c-1.688-3.026-4.15-6.482-8.246-6.482H24.806c-3.338 0-6.3 2.292-8.344 6.489l-2.515 4.446c-1.216-.002-3.918-.012-5.41-.012-2.451 0-4.442 1.222-5.074 3.118a11.011 11.011 0 00-.53 2.67 1.145 1.145 0 00.651 1.085c.134.063.28.098.428.103l3.746-.033c-1.633 1.242-2.683 3.304-2.683 5.7 0 .044.003.087.008.13l1.734 13.74a4.09 4.09 0 003.366 3.922v4.402a2.554 2.554 0 002.582 2.535h4.52c1.416 0 2.62-1.12 2.62-2.535v-4.408h39.19v4.408c0 1.416 1.204 2.535 2.62 2.535h4.52a2.557 2.557 0 002.581-2.535v-4.416a4.056 4.056 0 003.29-3.908l1.812-13.742a.953.953 0 00.008-.141c0-2.369-1.103-4.463-2.78-5.71h3.843a1.077 1.077 0 00.781-.336zm-57.41-9.99c.01-.019.02-.027.03-.047.964-1.988 3.079-5.31 6.416-5.31h29.638c2.35 0 4.252 1.61 6.354 5.378l4.953 9.126h-5.322a7.25 7.25 0 00-14.394 0h-32.83l5.154-9.146zm39.887 9.147h-10.03a5.09 5.09 0 0110.03 0zm-52.992-.984a8.72 8.72 0 01.258-.959c.327-.982 1.543-1.643 3.024-1.643 1.1 0 2.858.003 4.192.005l-1.46 2.59-6.014.007zm12.489 30.08c0 .225-.234.375-.46.375h-4.52a.394.394 0 01-.42-.375v-4.408h5.4v4.408zm48.912 0a.396.396 0 01-.421.375h-4.52c-.226 0-.46-.15-.46-.375v-4.408h5.4l.001 4.408zm5.107-22.268l-1.815 13.726a.624.624 0 00-.01.11 1.872 1.872 0 01-1.896 1.864H10.88a1.873 1.873 0 01-1.897-1.865c0-.04-.003-.08-.009-.12L7.235 50.174c.028-2.267 1.49-4.568 3.935-4.693.06.018.123.03.186.038h56.17c.01 0 .02-.014.03-.014 2.3 0 4.175 2.09 4.207 4.681zm-4.07-7.807l-1.42-2.616c1.332.005 3.092.01 4.189.01 1.481 0 2.697.66 3.024 1.643.104.315.19.636.258.96l-6.052.003z" fill="#8A1A10"/><path d="M25.21 57.861h28.58a1.071 1.071 0 001.023-1.42l-.985-2.897c-.678-1.99-2.855-3.552-4.959-3.552H30.053c-2.109 0-4.274 1.572-4.928 3.577l-.942 2.888a1.072 1.072 0 001.026 1.404zm1.969-3.627c.363-1.11 1.705-2.082 2.874-2.082H48.87c1.174 0 2.535.972 2.913 2.083l.5 1.466H26.698l.48-1.467zm30.384 5.325h-35.25a1.08 1.08 0 100 2.16h35.25a1.08 1.08 0 100-2.16zm-16.52-43.801a1.08 1.08 0 00-.932.534l-2.078 3.548a3.488 3.488 0 106.02 0l-2.078-3.548a1.08 1.08 0 00-.932-.534zm.94 6.785a1.33 1.33 0 01-2.086-1.611l1.146-1.957 1.146 1.957a1.33 1.33 0 01-.206 1.61zm-12.418-6.785a1.08 1.08 0 00-.932.534l-2.078 3.548a3.488 3.488 0 106.02 0l-2.078-3.548a1.08 1.08 0 00-.932-.534zm.94 6.785a1.328 1.328 0 01-2.086-1.611l1.146-1.957 1.146 1.957a1.33 1.33 0 01-.206 1.61zm19.549 1.527a3.489 3.489 0 005.477-4.23l-2.078-3.548a1.08 1.08 0 00-1.864 0l-2.078 3.548a3.49 3.49 0 00.543 4.23zm1.32-3.138l1.147-1.957 1.146 1.957a1.328 1.328 0 11-2.293 0zM35.704 4.513a1.08 1.08 0 00-1.864 0l-2.078 3.548a3.488 3.488 0 106.02 0l-2.078-3.548zm.008 6.25a1.328 1.328 0 01-2.086-1.61l1.146-1.957 1.147 1.957a1.33 1.33 0 01-.207 1.61zm12.534-6.25a1.08 1.08 0 00-1.864 0l-2.079 3.548a3.49 3.49 0 106.02 0l-2.077-3.548zm.007 6.25a1.328 1.328 0 01-2.086-1.61l1.147-1.957 1.146 1.957a1.33 1.33 0 01-.207 1.61z" fill="#8A1A10"/></svg>