<svg width="79" height="79" fill="none" xmlns="http://www.w3.org/2000/svg"><path d="M62.953 68.816V10.184a1.08 1.08 0 00-1.08-1.08H35.442a1.08 1.08 0 00-.9.482L16.227 37.193a1.08 1.08 0 00-.18.597v15.597a1.08 1.08 0 001.08 1.08 14.366 14.366 0 0114.35 14.35 1.08 1.08 0 001.08 1.08h29.316a1.08 1.08 0 001.08-1.08zm-2.16-1.08H33.602a16.534 16.534 0 00-15.395-15.394V38.115l17.814-26.851h24.772v56.472z" fill="#8A1A10"/><path d="M22.219 40.36v4.244a1.069 1.069 0 001.08 1.068H55.7a1.07 1.07 0 001.08-1.068V16.356a1.08 1.08 0 00-1.08-1.08H39.333a1.08 1.08 0 00-.899.48L22.401 39.76a1.08 1.08 0 00-.182.6zm2.16.327L39.91 17.436h14.711v26.076H24.38v-2.825zM55.701 51.38H44.437a1.08 1.08 0 100 2.161h11.264a1.08 1.08 0 000-2.16z" fill="#8A1A10"/></svg>