<svg width="79" height="79" fill="none" xmlns="http://www.w3.org/2000/svg"><path d="M77.007 34.007l-7.476-3.672a1.078 1.078 0 00.557-1.006 10.404 10.404 0 00-.52-2.518c-.614-1.801-2.52-2.953-4.842-2.936-1.364.01-3.827.02-4.988.023l-2.27-4.103c-1.606-2.83-3.94-6.063-7.785-6.063h-.05l-27.786.196c-3.155.023-5.938 2.218-7.838 6.19l-2.306 4.157c-1.158.006-3.65.018-5.032.028-2.327.018-4.211 1.197-4.8 3.007a10.402 10.402 0 00-.481 2.526 1.143 1.143 0 00.655 1.078c.133.06.277.095.424.1h.01l3.313-.056c-1.449 1.199-2.363 3.102-2.347 5.294 0 .044.004.087.01.13L5.18 49.247a3.876 3.876 0 003.19 3.707l.03 4.07a2.373 2.373 0 00.738 1.706 2.423 2.423 0 001.736.673h.02l4.237.007a2.462 2.462 0 002.457-2.476l-.03-3.994 29.859-.215c.942 2.34 2.544 4.53 4.397 5.793l9.644 6.578a1.08 1.08 0 001.217 0l9.643-6.577c2.968-2.022 5.293-6.42 5.293-10.01V34.977a1.08 1.08 0 00-.604-.969zm-12.265-7.972c1.358-.012 2.478.582 2.782 1.474.09.265.167.536.229.81l-2.29.017-2.92-1.435a1.08 1.08 0 00-.952 0l-.153.075-.51-.922c1.235-.005 2.816-.012 3.814-.02zm-48.827-4.903l.03-.06c.884-1.855 2.826-4.961 5.918-4.983l27.785-.196h.036c2.159 0 3.928 1.482 5.9 4.957l3.912 7.082L56.7 29.3l-1.28-.03c-.46-3.35-3.337-5.971-6.801-5.971h-.051c-3.486.154-6.352 2.697-6.763 6.069l-30.603.242 4.713-8.478zm37.318 8.152l-9.242.049c.4-2.176 2.301-3.719 4.593-3.873h.035a4.747 4.747 0 014.614 3.825zM3.71 28.79a8.02 8.02 0 01.216-.812c.291-.896 1.4-1.505 2.76-1.515l3.816-.023-1.277 2.302-5.515.048zm11.405 28.46l-4.237-.007h-.002a.313.313 0 01-.222-.053.263.263 0 01-.094-.203l-.03-3.995 4.87-.03.029 4.008a.285.285 0 01-.314.28zm31.972-23.27a1.123 1.123 0 00-.644.975V48.51c.018.706.108 1.41.27 2.097l-37.65.31H9.05a1.741 1.741 0 01-1.71-1.73 1.551 1.551 0 00-.01-.153l-1.725-12.87c.01-2.627 1.79-4.258 3.587-4.382.056.005.113.006.17.002h.007l42.853-.303-5.135 2.5zm28.364 14.53c0 2.851-1.992 6.62-4.35 8.227l-9.035 6.161-9.074-6.162c-2.358-1.608-4.388-5.375-4.388-8.226V35.63l13.423-6.556 13.424 6.574V48.51z" fill="#8A1A10"/><path d="M51.34 46.039a10.727 10.727 0 1010.726-10.727 10.739 10.739 0 00-10.727 10.727zm10.726-8.567a8.567 8.567 0 11-8.567 8.567 8.576 8.576 0 018.567-8.567z" fill="#8A1A10"/><path d="M59.879 49.475a1.08 1.08 0 001.524.064l5.903-5.407a1.08 1.08 0 00-1.459-1.593l-5.11 4.68-2.388-2.59a1.08 1.08 0 00-1.588 1.465l3.118 3.38zm-46.707-12.29h-.03A3.99 3.99 0 009.2 41.203a4.02 4.02 0 001.184 2.832 3.977 3.977 0 002.788 1.174h.03c2.192 0 3.96-1.85 3.944-4.04a4.012 4.012 0 00-3.973-3.983zm.013 5.864h-.013a1.84 1.84 0 01-1.813-1.828 1.858 1.858 0 01.522-1.31 1.81 1.81 0 011.277-.565h.014a1.852 1.852 0 01.013 3.703zm30.878 3.24h-.008l-16.386.094a1.032 1.032 0 00-1.074 1.037 1.035 1.035 0 001.082 1.03h.008l16.386-.087a1.036 1.036 0 10-.008-2.074zm-15.63-3.857h.008c.596-.155 1.076-.53 1.072-1.127l-.02-2.702a1.112 1.112 0 00-1.08-1.11h-.007a1.093 1.093 0 00-1.072 1.107l.02 2.712a1.122 1.122 0 001.079 1.12zm-4.957-4.938h-.007a1.109 1.109 0 00-1.073 1.124l.02 2.704a1.114 1.114 0 001.08 1.11h.008a1.094 1.094 0 001.072-1.108l-.02-2.712a1.12 1.12 0 00-1.08-1.118zm9.894 4.783h.008a1.058 1.058 0 001.072-1.067l-.02-2.655a1.071 1.071 0 00-1.08-1.06h-.007a1.076 1.076 0 00-1.072 1.087l.02 2.645a1.063 1.063 0 001.079 1.05zm4.938.001h.008a1.076 1.076 0 001.072-1.086l-.02-2.646a1.063 1.063 0 00-1.08-1.052h-.008a1.06 1.06 0 00-1.072 1.07l.02 2.654a1.07 1.07 0 001.08 1.06zm4.937-.001h.008a1.09 1.09 0 001.072-1.103l-.02-2.637a1.057 1.057 0 00-1.08-1.043h-.007a1.045 1.045 0 00-1.073 1.051l.02 2.663a1.077 1.077 0 001.08 1.07z" fill="#8A1A10"/></svg>