<svg width="79" height="79" fill="none" xmlns="http://www.w3.org/2000/svg"><path d="M72.974 34.5l-.004-.033a1.082 1.082 0 00-.025-.126l-.004-.011a1.098 1.098 0 00-.1-.237l-.011-.021a1.088 1.088 0 00-.074-.108l-.012-.015a1.068 1.068 0 00-.103-.11c-.01-.01.02-.02.01-.029l-10.778-9.42v-2.097c0-2.593-2.185-4.703-4.776-4.703H55.29L40.169 5.672a1.08 1.08 0 00-1.35.01L24.143 17.59h-2.239c-2.591 0-4.776 2.111-4.776 4.703v.808L6.3 33.791h.019c-.198.309-.301.532-.301.833v33.332a5.58 5.58 0 001.52 3.83l.01.014c.044.061.094.118.148.17a5.601 5.601 0 003.924 1.63h55.76a5.644 5.644 0 005.602-5.644V34.624l-.001-.021a1.07 1.07 0 00-.007-.102zm-11.101-7.246l8.289 7.22-8.289 5.1v-12.32zM39.51 7.902L51.8 17.59H27.57l11.94-9.688zm-20.223 16.1l.033-.033-.033-.033v-1.643c0-1.401 1.216-2.543 2.616-2.543h2.888l.046.057.07-.057h29.634l.037.029.022-.029h2.497c1.4 0 2.616 1.142 2.616 2.543v2.266a.418.418 0 000 .577v15.768L41.345 52.185a3.527 3.527 0 01-3.669-.002L19.287 40.87V24.002zm-2.16 2.138v13.398l-8.338-5.145 8.338-8.253zm-8.95 41.816v-31.45l23.44 14.464L8.583 69.575a3.42 3.42 0 01-.405-1.62zm59.203 3.483H11.62a3.436 3.436 0 01-1.455-.344l23.401-18.912 2.995 1.843a5.573 5.573 0 005.878.001l2.947-1.815 23.406 18.903a3.436 3.436 0 01-1.412.324zm3.442-3.483c0 .58-.146 1.15-.426 1.657L47.338 51.01l23.484-14.455v31.4z" fill="#8A1A10"/><path d="M47.832 42.887c0 .97.84 1.705 1.81 1.705h2.063c.97 0 1.836-.735 1.836-1.705v-1.582a2.56 2.56 0 001.466-2.172l.806-6.242a1.043 1.043 0 000-.142c0-1.812-1.213-3.355-2.812-3.698l-.181-.352h.937a1.08 1.08 0 000-2.16h-2.11L50.6 24.662c-.85-1.522-2.102-3.215-4.278-3.215h-13.53c-1.756 0-3.293 1.112-4.33 3.23l-1.08 1.862h-2.463a1.08 1.08 0 000 2.16h1.244l-.175.335c-1.61.332-2.79 1.86-2.79 3.715 0 .045.002.09.008.136l.752 6.245c.031.994.73 1.838 1.5 2.188v1.569c0 .97.866 1.705 1.837 1.705h2.064c.97 0 1.809-.735 1.809-1.705v-1.381h16.664v1.381zm3.549-.455h-1.389v-.926h1.389v.926zM30.36 25.712c.011-.02.021-.013.03-.033.38-.784 1.198-2.072 2.402-2.072h13.53c.83 0 1.546.62 2.385 2.123l1.327 2.434c.013.025.026.044.04.068l.424.776h-.958a3.898 3.898 0 00-7.542 0H28.502l1.858-3.296zm16.837 3.296h-2.856a1.735 1.735 0 012.856 0zm-18.19 13.424H27.62v-.926h1.389v.926zm-2.573-3.086a.289.289 0 01-.279-.286c0-.047-.003-.093-.008-.14l-.789-6.23c.024-.734.472-1.47 1.212-1.528.027.002.054.006.082.006h25.657c.801 0 1.306.776 1.333 1.52l-.823 6.223c-.006.05-.01.1-.01.149a.289.289 0 01-.279.286H26.434z" fill="#8A1A10"/><path d="M44.306 35.488h-9.612a1.08 1.08 0 100 2.16h9.612a1.08 1.08 0 000-2.16zM29.05 32.911a2.862 2.862 0 100 5.725 2.862 2.862 0 000-5.725zm0 3.565a.701.701 0 110-1.403.701.701 0 010 1.403zm20.9-3.565a2.862 2.862 0 100 5.724 2.862 2.862 0 000-5.724zm0 3.565a.702.702 0 110-1.403.702.702 0 010 1.403z" fill="#8A1A10"/></svg>