<svg width="79" height="79" fill="none" xmlns="http://www.w3.org/2000/svg"><path d="M70.979 29.358L40.119 7.756a1.08 1.08 0 00-1.239 0L8.021 29.358a1.08 1.08 0 00-.46.884V70.36a1.08 1.08 0 001.08 1.08h61.718a1.08 1.08 0 001.08-1.08V30.242a1.081 1.081 0 00-.46-.884zm-1.7 39.921H9.721V30.805L39.5 9.959l29.78 20.846v38.474z" fill="#8A1A10"/><path d="M22.165 37.463l-1.75 3.156c-.96.005-2.795.015-3.835.023-1.934.014-3.504 1.007-3.999 2.529a8.468 8.468 0 00-.39 2.052 1.015 1.015 0 00.302.766 1.052 1.052 0 00.777.3h.009l2.04.011c-.068.073-.135.161-.2.238a5.744 5.744 0 00-1.309 3.738c0 .046.003.092.01.138l1.358 10.137a3.285 3.285 0 002.515 3.089l.023 3.028a2.167 2.167 0 002.18 2.148h.017l3.34-.016a2.18 2.18 0 002.165-2.192l-.021-2.926 28.479-.21.021 2.93a2.1 2.1 0 00.65 1.508 2.14 2.14 0 001.53.598h.017l3.34.004a2.154 2.154 0 002.165-2.174l-.023-3.038a3.277 3.277 0 002.413-3.104l1.265-10.151c.006-.047.009-.094.009-.142a5.646 5.646 0 00-1.396-3.71 5.15 5.15 0 00-.204-.216l2.075-.016a1.079 1.079 0 001.07-1.14 8.515 8.515 0 00-.42-2.063c-.514-1.504-2.079-2.486-3.994-2.486h-.043c-1.032 0-2.839.03-3.795.034l-1.726-3.14c-1.297-2.285-3.187-4.918-6.336-4.918h-.042l-21.906.184c-2.579.02-4.844 1.82-6.38 5.031zm-7.628 6.713c.029-.11.062-.223.099-.338.196-.603 1.003-1.03 1.96-1.037l2.617-.016-.752 1.357-3.924.034zm8.701 22.472l-3.34.025a.023.023 0 01-.02-.02l-.023-2.928 3.382-.025.021 2.928a.02.02 0 01-.02.02zm36.18-.267l-3.34.025a.023.023 0 01-.02-.02l-.022-2.928 3.381-.025.022 2.928a.022.022 0 01-.02.02zm2.95-23.95h.024c.947 0 1.748.43 1.951 1.024.04.116.074.237.104.347l-3.95.035-.752-1.377c.898-.004 1.933-.028 2.623-.028zm-2.143 4.299c.005 0 .011-.011.017-.011.01 0 .02-.007.029-.007a2.603 2.603 0 011.98.917 3.52 3.52 0 01.85 2.226l-1.264 10.138a1.062 1.062 0 00-.008.141 1.126 1.126 0 01-1.112 1.129l-42.25.311a1.126 1.126 0 01-1.13-1.112c0-.045-.003-.09-.009-.135L15.97 50.203a3.606 3.606 0 01.803-2.261 2.532 2.532 0 011.78-.917c.049.015.099.027.15.035h.008l41.514-.33zm-13.931-2.082a3.48 3.48 0 016.709-.05l-6.71.05zm4.174-10.24h.025c1.61 0 2.944 1.164 4.452 3.82l3.482 6.32-3.216.055a5.623 5.623 0 00-5.556-4.64h-.043a5.596 5.596 0 00-5.53 4.714l-23.537.167 3.525-6.359a.96.96 0 00.031-.062c.673-1.414 2.148-3.813 4.46-3.83l21.907-.185z" fill="#8A1A10"/><path d="M21.708 57.553h.025a3.37 3.37 0 00-.05-6.738 3.37 3.37 0 00.025 6.738zm-.009-4.63h.009a1.136 1.136 0 01.806.371 1.179 1.179 0 01.322.86v.013a1.17 1.17 0 01-.309.851 1.153 1.153 0 01-.828.358 1.21 1.21 0 01-1.2-1.218 1.229 1.229 0 011.2-1.234zm35.725 4.321h.025a3.336 3.336 0 003.072-4.633 3.265 3.265 0 00-.738-1.067 3.307 3.307 0 00-2.358-.935h-.026a3.312 3.312 0 00-3.336 3.328 3.34 3.34 0 003.36 3.307zm-.855-4.145a1.155 1.155 0 01.846-.33h.01a1.173 1.173 0 01.846.317 1.154 1.154 0 01.362.825 1.203 1.203 0 11-2.32-.436c.059-.142.146-.27.256-.376zm-23.426 7.077h.008l12.92-.088a1.114 1.114 0 00-.008-2.227h-.009l-12.919.132a1.09 1.09 0 00.008 2.183zm.597-4.783h.008a1.104 1.104 0 001.072-1.119l-.016-2.116a1.092 1.092 0 00-1.08-1.086h-.008a1.076 1.076 0 00-1.072 1.087l.016 2.132a1.106 1.106 0 001.08 1.102zm-3.893 0h.008a1.091 1.091 0 001.072-1.104l-.015-2.123a1.098 1.098 0 00-1.08-1.094h-.009a1.089 1.089 0 00-1.072 1.102l.016 2.124a1.1 1.1 0 001.08 1.095zm19.463-.155h.009a1.087 1.087 0 001.072-1.098l-.016-2.107a1.08 1.08 0 10-2.16.01l.015 2.113a1.09 1.09 0 001.08 1.082zm-11.677 0h.008a1.048 1.048 0 001.072-1.055l-.015-2.086a1.08 1.08 0 10-2.16.029l.015 2.07a1.054 1.054 0 001.08 1.042zm3.892 0h.008a1.063 1.063 0 001.072-1.07l-.015-2.062a1.05 1.05 0 00-1.08-1.034h-.008a1.053 1.053 0 00-1.073 1.058l.016 2.069a1.053 1.053 0 001.08 1.04zm3.893 0h.008a1.076 1.076 0 001.072-1.084l-.015-2.133a1.107 1.107 0 00-1.08-1.103h-.009a1.106 1.106 0 00-1.072 1.121l.016 2.114a1.09 1.09 0 001.08 1.085z" fill="#8A1A10"/></svg>