<svg width="79" height="79" fill="none" xmlns="http://www.w3.org/2000/svg"><path d="M13.146 28.105a3.569 3.569 0 100 7.137 3.569 3.569 0 000-7.137zm0 4.976a1.408 1.408 0 110-2.815 1.408 1.408 0 010 2.815z" fill="#8A1A10"/><path d="M4.012 22.99h.001l2.451-.015c-1.11 1.057-1.804 2.617-1.804 4.394 0 .044.002.088.008.132l1.404 11.072a3.475 3.475 0 002.723 3.32v3.378a2.255 2.255 0 002.275 2.252h3.646a2.239 2.239 0 002.257-2.252v-3.302h28.39v24.216a4.585 4.585 0 004.612 4.637h21.407a4.651 4.651 0 004.686-4.637V34.612a4.685 4.685 0 00-4.686-4.678h-3.896c-.397-1.698-1.87-2.778-3.62-2.778h-3.27a5.948 5.948 0 00-1.868-4.15l2.524-.02a1.096 1.096 0 001.078-1.146 9.137 9.137 0 00-.438-2.213c-.539-1.616-2.222-2.66-4.29-2.66-1.147 0-3.172-.008-4.2-.012l-1.886-3.452c-1.39-2.49-3.422-5.325-6.833-5.325H20.782c-2.776 0-5.229 1.878-6.915 5.335l-1.965 3.47c-1.03-.003-3.086-.012-4.24-.012-2.068 0-3.752 1.04-4.29 2.656a9.106 9.106 0 00-.439 2.209 1.105 1.105 0 00.653 1.06c.134.06.279.092.426.094zm10.8 22.28c0 .067-.03.093-.096.093H11.07c-.066 0-.115-.025-.115-.092v-3.302h3.857v3.302zm30.551-10.659v5.198H9.551a1.318 1.318 0 01-1.32-1.317.992.992 0 00-.01-.133l-1.4-11.062c.028-2.158 1.487-3.463 2.954-3.562.053.013.106.022.16.027h45.298c.008 0 .016.025.024.025 1.862 0 3.052 1.672 3.174 3.37h-.94c-1.75 0-3.223 1.08-3.62 2.777h-3.896a4.622 4.622 0 00-4.612 4.678zm-5.445-13.01a3.897 3.897 0 017.576 0h-7.576zm27.527 10.493h3.937a2.522 2.522 0 012.526 2.518v31.573a2.486 2.486 0 01-2.526 2.477H49.975a2.425 2.425 0 01-2.452-2.477V34.612c0-1.393 1.059-2.518 2.452-2.518h3.936a3.686 3.686 0 003.58 2.623h6.374a3.686 3.686 0 003.58-2.623zm-3.591-2.778a1.568 1.568 0 011.568 1.568v.26a1.568 1.568 0 01-1.568 1.567h-6.43a1.567 1.567 0 01-1.569-1.568v-.259a1.567 1.567 0 011.568-1.568h6.431zm-6.253-10.191c1.105 0 2.006.475 2.241 1.182.057.172.105.34.144.5l-4.494.001-.917-1.69c1.015.003 2.231.007 3.026.007zm-41.837-4.59c.011-.02.022-.022.031-.042.757-1.558 2.41-4.155 4.987-4.155h23.9c1.81 0 3.289 1.258 4.941 4.22l3.827 7.044h-3.756a6.058 6.058 0 00-11.977 0H11.786l3.98-7.067zM5.42 20.307c.236-.707 1.137-1.182 2.241-1.182l3.024.003-.943 1.671-4.465.006c.039-.16.086-.327.143-.498z" fill="#8A1A10"/><path d="M44.384 29.983c-.573-1.685-2.417-2.981-4.197-2.981H25.013c-1.786 0-3.619 1.305-4.173 3.002l-.76 2.315a1.138 1.138 0 00.533 1.338c.152.083.321.129.494.134h23.049a1.114 1.114 0 00.878-.485 1.091 1.091 0 00.145-.982l-.795-2.341zM22.596 31.63l.297-.922c.263-.804 1.273-1.547 2.12-1.547h15.174c.852 0 1.878.744 2.152 1.55l.308.919H22.596zm18.934 4.013H23.61a1.08 1.08 0 000 2.16h17.92a1.08 1.08 0 000-2.16zm9.704 10.029h1.145a1.08 1.08 0 100-2.16h-.072V40.58h3.055c.143.309.514.702.99.702a1.082 1.082 0 001.046-1.115v-.736a.966.966 0 00-1.012-1.011h-5.152c-.596 0-1.087.415-1.087 1.011v5.152a1.094 1.094 0 001.087 1.089zm-.007 9.875h5.091a1.08 1.08 0 001.08-1.08v-5.092a1.08 1.08 0 00-1.08-1.08h-5.091a1.08 1.08 0 00-1.08 1.08v5.092a1.08 1.08 0 001.08 1.08zm1.08-5.092h2.931v3.086h-2.931v-3.086zm.072 13.115h-.072v-3.086h2.999a1.056 1.056 0 001.046 1.084 1.025 1.025 0 001.046-1.049v-1.053c0-.597-.416-1.141-1.012-1.141h-5.152a1.14 1.14 0 00-1.087 1.14v5.151a1.116 1.116 0 001.087 1.115h1.145a1.08 1.08 0 100-2.16z" fill="#8A1A10"/><path d="M58.913 39.685l-3.212 3.212-.984-.984a1.08 1.08 0 00-1.527 1.528l1.747 1.747a1.081 1.081 0 001.528 0l3.976-3.976a1.08 1.08 0 10-1.528-1.528v.001zm0 20.191l-3.212 3.213-.984-.984a1.081 1.081 0 00-1.527 1.528l1.747 1.747a1.08 1.08 0 001.528 0l3.976-3.976a1.08 1.08 0 10-1.527-1.528h-.001zm3.261-17.907a1.08 1.08 0 001.08 1.08h6.87a1.08 1.08 0 000-2.16h-6.87a1.08 1.08 0 00-1.08 1.08zm7.949 8.949h-6.869a1.08 1.08 0 100 2.16h6.87a1.08 1.08 0 000-2.16zm0 10.029h-6.869a1.08 1.08 0 100 2.16h6.87a1.08 1.08 0 000-2.16z" fill="#8A1A10"/></svg>