<svg width="79" height="79" fill="none" xmlns="http://www.w3.org/2000/svg"><path d="M69.63 31.492c-2.486 0-4.804 1.219-6.311 3.07H51.973a23.504 23.504 0 00-2.765-6.84l3.276-3.94a1.07 1.07 0 00-.064-1.442l-5.56-5.627a1.08 1.08 0 00-1.457-.072l-3.963 3.282a23.044 23.044 0 00-6.18-2.61l-.496-5.11a1.05 1.05 0 00-1.075-.94h-7.983a1.05 1.05 0 00-1.075.94l-.496 5.129a22.519 22.519 0 00-6.188 2.595l-3.955-3.28a1.08 1.08 0 00-1.453.066l-5.63 5.63a1.08 1.08 0 00-.069 1.453l3.282 3.962a23.03 23.03 0 00-2.61 6.18l-5.147.496a1.08 1.08 0 00-.976 1.074v7.984a1.08 1.08 0 00.976 1.075l5.146.496a22.53 22.53 0 002.605 6.187L6.84 55.205a1.08 1.08 0 00.068 1.453l5.631 5.632a1.08 1.08 0 001.453.068l3.962-3.281a23.027 23.027 0 006.18 2.61l.497 5.11a1.05 1.05 0 001.075.94h7.983a1.049 1.049 0 001.075-.94l.496-5.128a22.522 22.522 0 006.187-2.596l3.956 3.28a1.08 1.08 0 001.452-.066l5.632-5.63a1.08 1.08 0 00.068-1.452l-3.281-3.935a23.249 23.249 0 002.77-6.832H63.32c1.507 1.851 3.825 3.07 6.312 3.07a8.008 8.008 0 000-16.015zM47.038 50.774a1.06 1.06 0 00.076 1.261l3.15 3.798-4.24 4.237-3.804-3.153a1.08 1.08 0 00-1.288-.067 20.28 20.28 0 01-6.9 2.907 1.04 1.04 0 00-.847.916l-.476 4.903h-6.021l-.476-4.903a1.06 1.06 0 00-.847-.934 20.879 20.879 0 01-6.913-2.908 1.079 1.079 0 00-1.274.08l-3.806 3.153-4.24-4.24 3.151-3.803a1.08 1.08 0 00.067-1.288 20.277 20.277 0 01-2.908-6.9 1.08 1.08 0 00-.952-.846l-4.94-.476v-6.022l4.94-.476a1.08 1.08 0 00.952-.847 20.895 20.895 0 012.916-6.912 1.08 1.08 0 00-.076-1.275l-3.15-3.805 4.24-4.24 3.805 3.15a1.08 1.08 0 001.288.067 20.3 20.3 0 016.9-2.908 1.04 1.04 0 00.847-.915l.476-4.904h6.021l.476 4.904a1.06 1.06 0 00.847.933 20.92 20.92 0 016.913 2.908 1.08 1.08 0 001.274-.08l3.8-3.149 4.178 4.23-3.155 3.81a1.038 1.038 0 00-.067 1.26 21.192 21.192 0 012.782 6.323H45.59A16.585 16.585 0 0029.697 22.85c-9.166 0-16.623 7.47-16.623 16.636 0 9.167 7.457 16.658 16.623 16.658A16.578 16.578 0 0045.59 44.438h4.237a21.298 21.298 0 01-2.79 6.336zm-27.99-15.352a1.104 1.104 0 00.8.376h.004l5.466-.043 2.667 3.77-2.479 3.678h-5.652a1.122 1.122 0 00-.966 1.61 11.92 11.92 0 0010.693 6.65c4.705 0 8.994-2.86 10.903-7.025h2.831a14.47 14.47 0 01-28.08-4.924c0-7.975 6.489-14.497 14.464-14.497a14.403 14.403 0 0113.616 9.546h-2.831c-1.909-4.166-6.198-7.034-10.904-7.034a11.908 11.908 0 00-10.701 6.658 1.123 1.123 0 00.17 1.234zm50.585 9.9a5.785 5.785 0 01-4.857-2.587 1.057 1.057 0 00-.902-.457H39.76a1.056 1.056 0 00-1.012.674 9.79 9.79 0 01-9.168 6.315 9.622 9.622 0 01-7.79-3.904h4.294a1.05 1.05 0 00.899-.45l3.208-4.8a1.068 1.068 0 00-.015-1.21l-3.413-4.843a1.046 1.046 0 00-.885-.423h-.003l-4.093-.019a9.792 9.792 0 0116.966 2.438 1.049 1.049 0 001.012.667h24.115a1.056 1.056 0 00.9-.457 5.826 5.826 0 114.858 9.054v.001z" fill="#8A1A10"/><path d="M69.631 36.12a3.38 3.38 0 103.125 2.085 3.374 3.374 0 00-3.125-2.085zm0 4.6a1.22 1.22 0 110-2.441 1.22 1.22 0 010 2.441z" fill="#8A1A10"/></svg>