<svg width="79" height="79" fill="none" xmlns="http://www.w3.org/2000/svg"><path d="M16.201 66.503a1.08 1.08 0 00-1.08 1.08v.999a1.08 1.08 0 002.16 0v-.999a1.08 1.08 0 00-1.08-1.08zm9.394-54.623h3.924a1.08 1.08 0 100-2.16h-3.924a1.08 1.08 0 100 2.16zm0-3.702h3.924a1.08 1.08 0 100-2.16h-3.924a1.08 1.08 0 100 2.16z" fill="#8A1A10"/><path d="M7.392 74.063h29.95c.003 0 .005-.009.008-.008l.014 2.117a1.919 1.919 0 001.922 1.902h.014l2.555-.019a1.923 1.923 0 001.907-1.934l-.013-1.988 19.726-.153.014 2.008a1.945 1.945 0 001.921 1.932h.014l2.555-.044a1.935 1.935 0 001.908-1.947l-.015-2.146a2.775 2.775 0 001.841-2.529l.963-6.193a1.07 1.07 0 00.012-.174 4.572 4.572 0 00-1.13-3.004 3.914 3.914 0 00-2.29-1.29l-3.062-5.518c-1.025-1.807-2.527-3.848-5.066-3.848h-.035l-15.207.093c-2.073.016-3.884 1.41-5.104 3.952l-.568 1.019-5.2-2.228v-4.997h.861a2.888 2.888 0 002.734-2.005h1.662c2.492 0 4.463-2.1 4.463-4.592v-.963h.403a3.875 3.875 0 003.917-3.874v-.91h.868a1.08 1.08 0 100-2.16h-.867v-.733a3.985 3.985 0 00-3.086-3.853V26.13a1.047 1.047 0 00.771-1.046v-4.231a1.098 1.098 0 00-1.08-1.103h-1.148a19.045 19.045 0 00-3.65-10.33 17.254 17.254 0 00-8.402-6.146l.12-1.16A1.078 1.078 0 0031.518.926h-8.307a1.08 1.08 0 00-1.074 1.191l.12 1.163a17.233 17.233 0 00-8.403 6.156 19.08 19.08 0 00-3.647 10.314h-1.15a1.06 1.06 0 00-1.033 1.103v4.23c0 .597.436 1.148 1.032 1.148h1.94l.109 1.539a3.817 3.817 0 00-2.416 2.698 4.758 4.758 0 00.723 3.866 4.807 4.807 0 002.259 1.757 15.657 15.657 0 008.08 12.914v5.058l-8.478 3.608c-.02.009-.05.018-.07.028A8.928 8.928 0 006.328 64.9c-.002.03-.002.06-.002.09v7.97a1.086 1.086 0 001.066 1.102zm32.13 1.85l-.01-1.748 2.077-.015.011 1.748-2.077.014zm26.125-.205l-.011-1.745 2.077-.015.012 1.746-2.078.014zM42.7 56.277l.031-.06c.49-1.028 1.553-2.725 3.184-2.737l15.208-.093h.017c1.127 0 2.082.804 3.182 2.743l2.457 4.435-1.82.007a4.568 4.568 0 00-8.933.062l-15.81.122 2.484-4.48zm20 4.304l-4.415.035a2.41 2.41 0 012.196-1.464 2.366 2.366 0 011.709.692c.214.212.387.462.51.738zm-24.742-2.928l1.24.53-1.24 2.236v-2.766zm-1.415 7.332c.058-.962.684-1.972 1.737-2.05.03.003.062.018.094.018h.008l30.2-.271c.005 0 .01-.038.014-.038h.022a1.757 1.757 0 011.323.644c.362.426.569.962.587 1.521l-.96 6.18a1.13 1.13 0 00-.013.178.61.61 0 01-.598.61l-30.766.238a.605.605 0 01-.607-.598.969.969 0 00-.016-.17l-1.03-6.162.005-.1zm.026-18.589a.664.664 0 01-.664.665h-4.997a.665.665 0 01-.665-.665v-.831a.665.665 0 01.665-.665h4.997a.664.664 0 01.664.665v.831zm-3.703 3.58v4.139c-3.549 1.514-7.56 1.514-10.955 0v-4.113a15.59 15.59 0 0010.955-.025zm9.721-7.508c0 1.301-1.002 2.432-2.303 2.432h-.49a17.93 17.93 0 001.932-3.334c.03.003.063-.06.096-.06h.765v.962zm-1.852-13.116l-.155.026a11.019 11.019 0 01-2.26-3.148h2.415v3.122zm6.172 4.477v3.803a1.715 1.715 0 01-1.757 1.714h-2.254V37.27a8.346 8.346 0 00.154-1.936h-.154v-3.24h2.254a1.729 1.729 0 011.757 1.735zm-4.011-3.895V26.23h.925v3.704h-.925zM21.602 5.876c.681-.33 1.395-.589 2.129-.773a1.069 1.069 0 00.782-1.156l-.103-.861h5.91l-.09.861a1.075 1.075 0 00.791 1.156 11.35 11.35 0 012.153.772v1.502a8.834 8.834 0 01-5.613 8.26 8.81 8.81 0 01-5.96-8.386V5.876zM15.62 10.72c1.068-1.444 2.278-2.664 3.822-3.634v.166a10.97 10.97 0 007.583 10.482l.212.074a1.036 1.036 0 00.67-.006 11.017 11.017 0 007.427-10.424v-.295a16.394 16.394 0 013.8 3.625 16.88 16.88 0 013.227 9.043H12.37a16.942 16.942 0 013.249-9.03zm-5.436 13.35v-2.16h34.408v2.16h-7.305a.89.89 0 00-.718-.114c-.114.022-.221-.04-.318.114H10.184zm4.114 2.16l-.209 2.573-.71-.381c-.04-.02-.066-.036-.069-.08l-.148-2.111h1.136zm-.566 9.054v-.022a1.056 1.056 0 00-.865-1.064 2.623 2.623 0 01-2.086-3.233 1.664 1.664 0 01.948-1.151c.187.21.411.384.661.513l1.752.899a1.378 1.378 0 001.303-.022 1.323 1.323 0 00.704-1.062l.316-3.912h19.531a11.945 11.945 0 003.279 4.87l.152.121c.186.167.424.263.674.272l.633.02v5.591a13.355 13.355 0 01-2.757 6.552 2.789 2.789 0 00-2.09-.916h-4.949a2.822 2.822 0 00-2.856 2.786v.764a2.836 2.836 0 001.312 2.371 13.7 13.7 0 01-2.102.162c-7.465 0-13.56-6.073-13.56-13.539zm5.247 21.447l1.762-.756a16.055 16.055 0 0013.273 0l1.783.756v5.075c-.617.528-1.017 1.302-1.242 2.073H18.98v-7.148zm-3.395 1.421l1.235-.499v6.226h-1.235v-5.727zm-1.543 7.887h20.46l.924 5.52c.005.12.019.19.039.343H14.04V66.04zm-5.555-1.001a6.613 6.613 0 013.629-5.393l1.309-.571v4.805h-.54a.985.985 0 00-1.003 1.041v6.982H8.486v-6.864z" fill="#8A1A10"/><path d="M40.67 70.977h.021a2.824 2.824 0 002.803-2.844 2.878 2.878 0 00-.841-2.021 2.836 2.836 0 00-1.982-.844h-.021a2.855 2.855 0 00.02 5.709zm-.473-3.32a.687.687 0 01.468-.23h.006a.71.71 0 01.472 1.192.653.653 0 01-.468.197h-.005a.662.662 0 01-.663-.657.734.734 0 01.19-.502zm26.242 3.165h.022a2.803 2.803 0 001.99-.864 2.852 2.852 0 00-2.01-4.845h-.022a2.827 2.827 0 00-2.802 2.853c.003.757.305 1.483.841 2.017.525.53 1.236.831 1.981.84zm-.004-3.549h.005a.683.683 0 01.679.668v.007a.725.725 0 01-.199.494.695.695 0 01-.475.22h-.005a.704.704 0 01-.475-1.18.679.679 0 01.47-.209zM48.437 69.28h.008a1.062 1.062 0 001.072-1.07l-.011-1.585a1.063 1.063 0 00-1.08-1.049h-.009a1.067 1.067 0 00-1.072 1.074l.012 1.582a1.059 1.059 0 001.08 1.047zm10.255 0h.008c.597-.155 1.077-.53 1.073-1.126l-.012-1.633a1.103 1.103 0 00-1.08-1.1h-.008a1.084 1.084 0 00-1.073 1.096l.012 1.649a1.116 1.116 0 001.08 1.113zm-6.837 0h.009a1.08 1.08 0 001.072-1.093l-.012-1.574a1.05 1.05 0 00-1.08-1.037h-.008a1.047 1.047 0 00-1.072 1.052l.012 1.593a1.069 1.069 0 001.08 1.058zm3.419 0h.008a1.1 1.1 0 001.072-1.115l-.012-1.639a1.108 1.108 0 00-1.08-1.104h-.008a1.094 1.094 0 00-1.072 1.107l.011 1.643a1.11 1.11 0 001.08 1.107z" fill="#8A1A10"/></svg>