<svg width="79" height="79" fill="none" xmlns="http://www.w3.org/2000/svg"><path d="M30.088 67.48a1.08 1.08 0 001.08-1.081v-.843a1.08 1.08 0 10-2.16 0v.843a1.08 1.08 0 001.08 1.08zm-18.824 0a1.08 1.08 0 001.08-1.081v-.843a1.08 1.08 0 10-2.16 0v.843a1.08 1.08 0 001.08 1.08zm7.89-48.81h3.313a1.08 1.08 0 100-2.16h-3.313a1.08 1.08 0 100 2.16zm0-3.086h3.313a1.08 1.08 0 100-2.16h-3.313a1.08 1.08 0 100 2.16z" fill="#8A1A10"/><path d="M38.574 73.691V63.367c0-.03.01-.06.007-.09a7.706 7.706 0 00-4.205-6.219c-.02-.01-.023-.019-.043-.027l-7.022-3.004v-.406c1.543.12 3.456.122 3.542.122a1.069 1.069 0 00.884-.468l.303-.447.073.189a1.083 1.083 0 001.073.68c2.896-.185 4.721-.629 4.798-.648a1.081 1.081 0 00.772-1.375l-4.103-12.931a4.229 4.229 0 001.86-4.586 3.444 3.444 0 00-2.019-2.383l.072-1.069h1.545a1.044 1.044 0 001.075-1.041V26.09a1.089 1.089 0 00-1.076-1.095h-.812a16.314 16.314 0 00-3.105-8.658 14.756 14.756 0 00-7.051-5.209l.088-.845a1.07 1.07 0 00-1.074-1.18H17.14a1.072 1.072 0 00-1.074 1.184l.088.846a14.742 14.742 0 00-7.052 5.218A16.34 16.34 0 006 24.996h-.813c-.597 0-1.02.498-1.02 1.095v3.573a.998.998 0 001.02 1.041h1.482l.072 1.065a3.426 3.426 0 00-2.027 2.377 4.28 4.28 0 00-.12 1.012 4.218 4.218 0 002.266 3.745L2.81 51.673a1.08 1.08 0 00.77 1.376c.157.039 3.045.73 7.302.73.98 0 2.08-.037 3.16-.127v.375L6.988 57.03c-.02.008-.046.017-.066.027a7.756 7.756 0 00-4.253 6.22c-.002.029-.046.059-.046.089V73.69a1.204 1.204 0 001.157 1.143h33.736c.596 0 1.058-.547 1.058-1.143zM29.78 57.424l.617.277v4.48h-.617v-4.757zm6.557-6.252c-.62.103-1.477.222-2.508.311l-.528-1.335a1.08 1.08 0 00-1.894-.215l-1.117 1.644a50.901 50.901 0 01-2.979-.122v-1.528a13.505 13.505 0 006.172-7.77l2.854 9.015zm-20.443-37.62a15.122 15.122 0 011.7-.6 1.077 1.077 0 00.8-1.15l-.055-.538h4.62l-.057.537a1.102 1.102 0 00.829 1.153 15.55 15.55 0 011.729.597v1.16a7.351 7.351 0 01-4.64 6.795 7.331 7.331 0 01-4.926-6.903v-1.051zm-5.053 4.083a12.985 12.985 0 012.903-2.857 9.454 9.454 0 006.543 8.836l.19.063c.224.073.465.071.686-.005a9.478 9.478 0 006.393-8.892c1.111.79 2.09 1.749 2.902 2.844a14.144 14.144 0 012.677 7.372H8.162a14.175 14.175 0 012.678-7.361zm-4.514 10.91v-1.389h28.7v1.389h-9.489a1.209 1.209 0 01-.13-.025 3.1 3.1 0 00-.382.025h-18.7zm26.074 2.16l-.068.984c-1.662.383-3.155-.212-4.26-.984H32.4zm-10.979 0c-2.981 1.543-7.689 2.992-12.508 1.16l-.08-1.16h12.588zm-14.653 4.46c-.006-.166.01-.332.043-.494a1.256 1.256 0 01.884-.927 15.265 15.265 0 005.914 1.17c2.3-.021 4.576-.466 6.715-1.313a23.712 23.712 0 004.808-2.523c.58.586 1.22 1.11 1.91 1.561 2.066 1.338 4.229 1.7 6.28 1.058a1.28 1.28 0 011.09.974c.04.161.06.327.06.493a2.033 2.033 0 01-1.67 2.031 1.055 1.055 0 00-.863 1.064v.02a11.264 11.264 0 01-22.527 0v-.02a1.108 1.108 0 00-.925-1.064 2.07 2.07 0 01-1.72-2.03zm18.382 15.76v3.146c-2.931 1.202-6.171 1.202-8.949 0v-3.122a13.416 13.416 0 008.95-.023zm-12.516.651l.336-1.443a1.083 1.083 0 10-2.107-.5l-.472 1.98a35.177 35.177 0 01-5.156-.442l2.711-8.5a13.696 13.696 0 006.095 7.29v1.523c-.463.04-.955.071-1.407.092zm1.098 4.926l1.32-.567a13.747 13.747 0 0011.222 0l1.345.567v5.68H13.732v-5.68zm-2.777 1.2l.617-.278v4.758h-.617v-4.48zm-2.16 4.48H8.42c-.596 0-1.013.528-1.013 1.125v9.367H4.783v-9.26c.309-1.875 1.378-3.559 3.056-4.41l.956-.38v3.558zm22.99 10.492H9.566v-8.332h22.22v8.332zm4.63 0h-2.47v-9.367a1.11 1.11 0 00-1.068-1.125h-.32v-3.559l.878.38a5.487 5.487 0 012.98 4.41v9.26zm28.422-35.18h1.441a1.08 1.08 0 000-2.16h-1.441a1.08 1.08 0 100 2.16zm1.752 1.852h-1.752a1.08 1.08 0 100 2.16h1.753a1.08 1.08 0 000-2.16zm0 4.166h-1.752a1.08 1.08 0 100 2.16h1.753a1.08 1.08 0 000-2.16zM50.3 39.134a1.08 1.08 0 00-1.08 1.08v8.076a1.08 1.08 0 102.16 0v-8.076a1.08 1.08 0 00-1.08-1.08zm-2.93 0a1.08 1.08 0 00-1.08 1.08v8.076a1.08 1.08 0 002.16 0v-8.076a1.08 1.08 0 00-1.08-1.08z" fill="#8A1A10"/><path d="M46.703 5.101l-1.369 5.21a1.07 1.07 0 00.094.732l1.015 2.073V28.39h-1.022a2.47 2.47 0 00-1.054 4.692l-1.278 4.455a1.11 1.11 0 00-.04.304v11.665c0 2.453 1.992 4.498 4.446 4.498h2.695c2.454 0 4.431-2.045 4.431-4.498V37.842c.003-.1-.008-.2-.033-.298l-1.274-4.45a2.476 2.476 0 00-1.05-4.703h-1.037V13.116l1.022-2.08c.115-.228.145-.49.086-.738l-1.36-5.197a1.048 1.048 0 00-1.037-.78h-2.19a1.057 1.057 0 00-1.045.78zm5.758 44.405c0 1.262-1.008 2.338-2.27 2.338h-2.696a2.33 2.33 0 01-2.286-2.338V37.994l1.336-4.666h4.595l1.321 4.666v11.512zm-.197-18.955a.309.309 0 010 .617h-6.843a.309.309 0 110-.617h6.843zm-3.16-24.07l1.058 4.008-.958 1.93c-.08.14-.126.293-.138.452v15.52h-.463V12.87a1.11 1.11 0 00-.13-.464l-.937-1.918 1.045-4.008h.523zm21.332-2.149a1.136 1.136 0 00-1.466.438c-.095.16-.147.342-.153.528v4.873l-3.09 2.077-3.188-2.24.023-4.712a1.077 1.077 0 00-1.556-.972 10.589 10.589 0 00.25 19.11v26.114a4.397 4.397 0 108.795 0V23.435a10.452 10.452 0 006.213-9.627 10.503 10.503 0 00-5.828-9.476zm-1.808 17.37a1.113 1.113 0 00-.737 1.013v26.833a2.237 2.237 0 11-4.475 0V22.715a1.057 1.057 0 00-.676-1.012 8.431 8.431 0 01-2.344-14.44l-.008 3.302a1.08 1.08 0 00.463.889l4.27 2.986a1.08 1.08 0 001.218.014l4.185-2.806a1.055 1.055 0 00.453-.899V7.27a8.217 8.217 0 013.116 6.54 8.454 8.454 0 01-5.465 7.894z" fill="#8A1A10"/></svg>