<svg width="77" height="67" fill="none" xmlns="http://www.w3.org/2000/svg"><path d="M12.438 24.996h-.03a4.128 4.128 0 00-4.12 4.16 4.196 4.196 0 004.149 4.172h.03c1.11-.154 2.148-.485 2.926-1.274a4.167 4.167 0 001.194-2.963 4.13 4.13 0 00-4.149-4.095zm.014 6.098a2.003 2.003 0 01-1.41-.573 1.93 1.93 0 01-.594-1.381 1.968 1.968 0 011.975-1.984h.015a1.955 1.955 0 011.842 2.705 1.983 1.983 0 01-1.828 1.233z" fill="#8A1A10"/><path d="M70.675 23.5a1.14 1.14 0 00.009-.142A7.226 7.226 0 0068.9 18.61a6.495 6.495 0 00-.983-.906l3.778-.03a1.079 1.079 0 001.07-1.14 10.982 10.982 0 00-.548-2.658c-.638-1.87-2.606-3.075-5.021-3.075h-.054c-1.464 0-4.118.025-5.332.029l-2.427-4.41C57.688 3.434 55.225 0 51.179 0h-.053L21.644.231c-3.323.025-6.255 2.353-8.259 6.545l-2.467 4.452c-1.21.006-3.895.022-5.379.033-2.44.018-4.414 1.254-5.03 3.146-.279.864-.45 1.758-.508 2.663a1.091 1.091 0 001.08 1.137h.009l3.71-.038c-1.61 1.25-2.635 3.316-2.617 5.696 0 .045.003.09.01.134l1.83 13.659a4.048 4.048 0 003.384 3.884l.032 4.373a2.554 2.554 0 002.56 2.534h.02l4.497-.029a2.563 2.563 0 002.542-2.578l-.032-4.313L30 41.434a24.013 24.013 0 00-.066 1.742c0 12.762 10.383 23.144 23.145 23.144s23.144-10.382 23.144-23.144a22.977 22.977 0 00-6.055-15.608l.507-4.069zm-3.518-10.54h.037c1.455 0 2.65.649 2.979 1.613.105.311.193.628.262.949l-6.01.047L63 12.985c1.324-.005 3.069-.024 4.158-.024zM15.29 7.802c.011-.02.022-.04.031-.06.944-1.982 3.022-5.326 6.339-5.35l29.482-.23h.037c2.318 0 4.212 1.605 6.319 5.317l4.99 9.045-5.28.042a7.22 7.22 0 00-14.33.108l-32.642.242L15.29 7.8zm39.736 8.784l-9.966.073a5.06 5.06 0 019.966-.073zm-52.71-.561c.065-.32.147-.637.247-.948.318-.978 1.52-1.643 2.992-1.653 1.091-.008 2.834-.019 4.16-.026l-1.427 2.575-5.972.052zM14.5 46.264l-4.497.033A.399.399 0 019.6 45.9l-.031-4.314 5.298-.04.032 4.315a.401.401 0 01-.398.404zm15.763-6.993l-22.185.164a1.895 1.895 0 01-1.746-1.149 1.868 1.868 0 01-.15-.718.899.899 0 00-.01-.136l-1.83-13.651c.01-2.835 1.935-4.557 3.876-4.687.058.018.117.03.176.039h.008l55.874-.438c.008 0 .016-.025.024-.025h.037a3.908 3.908 0 012.946 1.367 5.137 5.137 0 011.24 3.267l-.296 2.372a23.15 23.15 0 00-33.28 3.112l-.017-2.457a1.08 1.08 0 10-2.16.016l.02 2.826a1.077 1.077 0 001.08 1.069h.008a23.047 23.047 0 00-3.614 9.028zm43.8 3.905c0 11.571-9.413 20.985-20.984 20.985-11.571 0-20.985-9.414-20.985-20.985a20.984 20.984 0 0141.969 0z" fill="#8A1A10"/><path d="M28.61 25.305h-.008a1.074 1.074 0 00-1.072 1.085l.02 2.804a1.06 1.06 0 001.08 1.048h.009a1.058 1.058 0 001.072-1.066l-.02-2.813a1.068 1.068 0 00-1.08-1.058zm-5.239 0h-.008a1.091 1.091 0 00-1.072 1.104l.02 2.872a1.118 1.118 0 001.08 1.116h.009a1.109 1.109 0 001.072-1.124l-.02-2.863a1.11 1.11 0 00-1.08-1.105zm34.357 7.235l.096-.924a1.111 1.111 0 00-.634-1.118 1.093 1.093 0 00-.44-.1h-7.342a1.102 1.102 0 00-1.074 1.214l.096.931a15.37 15.37 0 00-7.393 5.453 17.031 17.031 0 00-3.24 9.065H36.9a1.118 1.118 0 00-1.102 1.103v3.74c0 .596.505 1.02 1.101 1.02H69.26c.597 0 1.1-.424 1.1-1.02v-3.74a1.118 1.118 0 00-1.1-1.103h-.897a16.996 16.996 0 00-3.242-9.077 15.385 15.385 0 00-7.392-5.444zm-9.741 2.47c.6-.258 1.219-.473 1.85-.644a1.112 1.112 0 00.815-1.17l-.046-.64h4.945l-.064.64a1.118 1.118 0 00.833 1.162c.631.174 1.25.392 1.85.652v1.246c0 3.17-2.015 6.006-4.94 7.165-3.1-1.08-5.243-3.983-5.243-7.277V35.01zM68.2 50.764H37.958V49.22H68.2v1.543zM39.96 47.06a14.855 14.855 0 012.815-7.78 13.626 13.626 0 013.127-3.054 9.846 9.846 0 006.812 9.296l.2.067c.108.035.221.054.335.054.132 0 .262-.02.388-.059a9.902 9.902 0 006.694-9.33v-.024a15.717 15.717 0 013.09 3.04c1.655 2.234 2.6 5.012 2.778 7.79H39.96z" fill="#8A1A10"/><path d="M51.515 40.272h3.467a1.08 1.08 0 100-2.16h-3.467a1.08 1.08 0 000 2.16zm0-3.087h3.467a1.08 1.08 0 100-2.16h-3.467a1.08 1.08 0 000 2.16z" fill="#8A1A10"/></svg>