<svg width="38" height="38" fill="none" xmlns="http://www.w3.org/2000/svg"><path d="M19 13.951A5.048 5.048 0 0013.952 19 5.05 5.05 0 0019 24.05a5.05 5.05 0 000-10.1zm0 8.35A3.298 3.298 0 0115.698 19 3.298 3.298 0 0119 15.699 3.31 3.31 0 0122.302 19c0 1.823-1.473 3.3-3.302 3.3zm5.554-10.197c-.65 0-1.165.517-1.165 1.167 0 .648.516 1.164 1.165 1.164.65 0 1.167-.516 1.167-1.164a1.16 1.16 0 00-1.167-1.167z" fill="#fff"/><path d="M19.003.19C8.61.19.189 8.61.189 19c0 10.388 8.422 18.81 18.814 18.81 10.385 0 18.81-8.42 18.81-18.81 0-10.39-8.425-18.81-18.81-18.81zm9.707 22.946c0 3.069-2.507 5.574-5.593 5.574h-8.234c-3.088 0-5.595-2.507-5.595-5.555v-8.292c0-3.068 2.506-5.573 5.595-5.573h8.234c3.088 0 5.593 2.505 5.593 5.573v8.273z" fill="#fff"/></svg>