<svg width="71" height="59" fill="none" xmlns="http://www.w3.org/2000/svg"><path d="M1.555 22.402h.001l4.284.02c-.458.33-.873.715-1.236 1.146a7.85 7.85 0 00-1.826 5.099c0 .046.003.093.009.139l1.901 14.777a4.197 4.197 0 003.656 4.158v4.798c0 1.479 1.14 2.729 2.618 2.729h4.858a2.748 2.748 0 002.707-2.729v-4.678h21.168c.333 0 .588-.22.897-.456v9.974c0 .596.414 1.129 1.01 1.129h4.05a1.102 1.102 0 001.076-1.001l.509-5.299a23.569 23.569 0 006.355-2.69l4.07 3.368a1.08 1.08 0 001.454-.07l5.765-5.766a1.08 1.08 0 00.068-1.453l-3.365-4.063a23.106 23.106 0 002.678-6.363l5.287-.509a1.08 1.08 0 00.976-1.075v-8.174a1.08 1.08 0 00-.976-1.075l-5.287-.509a23.634 23.634 0 00-2.685-6.355l3.371-4.07a1.08 1.08 0 00-.068-1.453l-5.764-5.765a1.08 1.08 0 00-1.453-.068L53.6 9.482a23.025 23.025 0 00-6.363-2.68l-.509-5.31a1.102 1.102 0 00-1.075-1h-4.05c-.597 0-1.011.533-1.011 1.129v1.876a1.47 1.47 0 00-.515-.073H23.903c-3.554 0-6.712 2.456-8.895 6.94l-2.727 4.825c-1.283-.003-4.24-.012-5.863-.012-2.598 0-4.708 1.294-5.376 3.297a11.75 11.75 0 00-.566 2.848 1.021 1.021 0 00.297.772 1.057 1.057 0 00.782.308zm41.197-7.694c7.56.573 13.717 6.994 13.717 14.792s-6.157 14.22-13.717 14.792V14.708zm0 31.75c8.795-.578 15.877-7.97 15.877-16.958 0-8.989-7.082-16.38-15.877-16.957v-9.89h1.92l.49 5.104a1.095 1.095 0 00.846.964 20.777 20.777 0 017.074 2.989 1.08 1.08 0 001.289-.064l3.913-3.239 4.374 4.375-3.24 3.914a1.08 1.08 0 00-.076 1.274 21.496 21.496 0 012.991 7.089 1.08 1.08 0 00.952.846l5.08.49v6.21l-5.08.49a1.08 1.08 0 00-.952.846 20.837 20.837 0 01-2.982 7.075 1.08 1.08 0 00.067 1.288l3.24 3.913-4.374 4.375-3.913-3.24a1.08 1.08 0 00-1.275-.075 21.413 21.413 0 01-7.088 2.99 1.108 1.108 0 00-.847.977l-.489 5.104h-1.92v-9.89zM16.367 52.54a.588.588 0 01-.547.567h-4.858c-.287 0-.458-.281-.458-.568v-4.678h5.863v4.679zm24.225-17.814a1.56 1.56 0 00-.515-.134H25.826l.55-1.7c.401-1.225 1.88-2.312 3.167-2.312h10.535c.172.02.346.01.515-.032l-.001 4.178zm0-6.144a1.62 1.62 0 00-.515-.162H29.542c-2.232 0-4.525 1.695-5.22 3.82l-1.012 3.118a1.058 1.058 0 00.537 1.282c.151.075.32.114.49.112h15.74c.174.011.348-.01.515-.06v2.13a1.462 1.462 0 00-.515-.064H21.223a1.08 1.08 0 000 2.16h18.854c.178-.013.352-.057.515-.13v5.23a1.348 1.348 0 00-.897-.317H8.936a2.153 2.153 0 01-2.12-2.155c0-.05-.003-.102-.008-.153l-1.87-14.777c.03-3.122 2.173-5.029 4.316-5.151a.972.972 0 00.194.017h30.629c.176-.003.35-.037.515-.1v5.2zM16.905 11.385c.01-.019.021-.028.03-.048 1.045-2.152 3.34-5.753 6.968-5.753h16.174c.177-.01.352-.051.515-.121v15.952a1.494 1.494 0 00-.515-.093h-28.78l5.608-9.936zM3.09 19.155c.363-1.089 1.7-1.82 3.327-1.82 1.221 0 3.195.003 4.645.006L9.4 20.284l-6.609.009c.076-.385.176-.765.3-1.137z" fill="#8A1A10"/></svg>