<svg width="289" height="41" fill="none" xmlns="http://www.w3.org/2000/svg"><g filter="url(#filter0_d)" stroke="red" stroke-width=".573" stroke-miterlimit="10" stroke-linecap="round" stroke-linejoin="round"><path d="M194.187 13.357c-.515-1.403-1.059-2.778-1.546-4.181-.458-1.26-1.518-1.69-2.692-1.232-.601.258-.916.774-1.116 1.346-1.633 4.382-3.265 8.763-4.926 13.144-.744 2.005-1.518 4.01-2.291 6.014-.286.715-.086 1.718.458 2.176.602.487 1.26.601 2.005.286.687-.286.945-.887 1.174-1.517.372-1.031.802-2.062 1.174-3.122.172-.486.401-.687.945-.687 2.205.029 4.439 0 6.644 0 .801 0 .83.029 1.116.773l1.289 3.35c.286.802.83 1.26 1.689 1.346 1.203.115 2.32-1.202 1.833-2.52-1.031-2.806-2.119-5.583-3.178-8.361-.344-.916-2.275-6.012-2.619-6.928M50.694 24.152c.63-1.317.945-2.72 1.088-4.18a11.135 11.135 0 00-.773-5.298c-1.346-3.322-3.58-5.813-7.044-7.016C40.242 6.37 36.776 7 33.627 9.318c-2.778 2.12-4.295 4.984-4.639 8.391-.372 3.608.573 6.901 3.093 9.622 2.004 2.176 4.467 3.436 7.388 3.723 2.663.257 5.125-.516 7.33-2.034.716-.486 1.29-1.116 1.89-1.718m79.064-3.15c.63-1.317.945-2.72 1.088-4.18a11.136 11.136 0 00-.773-5.298c-1.346-3.322-3.58-5.813-7.045-7.016-3.722-1.289-7.187-.659-10.337 1.66-2.778 2.063-4.324 4.955-4.668 8.363-.372 3.608.573 6.9 3.093 9.65 2.004 2.176 4.467 3.436 7.388 3.723 2.663.257 5.126-.516 7.331-2.034.715-.486 1.288-1.116 1.89-1.718m110.877-3.15c.63-1.317.945-2.72 1.088-4.18a11.136 11.136 0 00-.773-5.298c-1.346-3.322-3.579-5.813-7.044-7.016-3.723-1.289-7.188-.659-10.338 1.66-2.777 2.063-4.324 4.955-4.667 8.363-.373 3.608.572 6.9 3.092 9.65 2.005 2.176 4.467 3.436 7.388 3.723 2.663.257 5.126-.516 7.331-2.034.716-.486 1.289-1.116 1.89-1.718m40.061 3.751h3.522c.974 0 1.833-.744 1.833-1.832.029-1.003-.83-1.833-1.89-1.833h-8.218c-.659 0-.774-.115-.774-.773v-4.467c-.028-.774.115-.888.888-.888h6.644c1.403 0 2.147-1.031 2.09-1.948-.057-1.059-.859-1.775-2.09-1.775h-6.758c-.688 0-.774-.086-.774-.773V12.24c-.028-.63.144-.774.774-.774l8.247-.028M97.141 30.481c1.432 2.434 4.246.471 2.877-2.95-.945-2.349-1.33-4.295-2.39-6.586v0c-.18-.361-.003-.756.274-1.05.56-.593 1.051-1.24 1.416-2.014 1.088-2.377.859-4.725-.516-6.901-1.03-1.604-2.52-2.635-4.41-3.064-.601-.144-1.231-.2-1.832-.23a166.88 166.88 0 00-5.355 0c-.544 0-1.06.086-1.518.43-.458.372-.687.802-.687 1.403v11.197c0 .515-.029 1.002-.057 1.517"/><path d="M218.699 17.824c-.286 2.663.315 5.011 2.177 7.015 1.26 1.346 2.777 2.148 4.581 2.406 2.005.258 3.78-.344 5.298-1.575 1.69-1.375 2.749-3.15 3.035-5.326.344-2.835-.4-5.298-2.462-7.36-1.06-1.06-2.32-1.775-3.809-2.004-2.491-.344-4.696.286-6.5 2.09-.143.143-.315.258-.401.344m-110.763 4.41c-.286 2.663.315 5.011 2.176 7.015 1.26 1.346 2.778 2.148 4.582 2.406 2.004.258 3.78-.344 5.298-1.575 1.689-1.375 2.749-3.15 3.035-5.326.344-2.835-.401-5.298-2.463-7.36-1.059-1.06-2.319-1.775-3.808-2.004-2.492-.344-4.697.286-6.501 2.09-.143.143-.315.258-.401.344m-78.977 4.41c-.286 2.663.315 5.011 2.176 7.015 1.26 1.346 2.778 2.148 4.582 2.406 2.005.258 3.78-.344 5.298-1.575 1.69-1.375 2.749-3.15 3.035-5.326.344-2.835-.4-5.298-2.463-7.36-1.06-1.06-2.32-1.775-3.808-2.004-2.492-.344-4.697.286-6.5 2.09-.144.143-.316.258-.401.344m222.07 9.622c0-3.809 0-9.393-.028-13.202 0-.801.572-1.632 1.517-1.775a1.81 1.81 0 012.005 1.174c.143.372.114.802.114 1.231V28.62c0 .487.029.974-.2 1.46-.544 1.146-2.205 1.404-3.036.287-1.345-1.832-2.691-3.636-4.009-5.47-1.804-2.49-5.011-5.955-6.815-8.446M60.487 14.817V9.634c0-.83-.602-1.661-1.346-1.833-.888-.229-1.747.143-2.176.945-.115.2-.172.43-.172.659v19.93c0 .802.716 1.747 1.861 1.747 2.176-.029 4.353 0 6.53 0h4.294c.802 0 1.69-.43 1.89-1.575.144-.773-.229-1.604-1.202-2.005a1.923 1.923 0 00-.688-.114h-8.103c-.83 0-.888-.086-.888-.888v-9.793m78.548-3.551c-.2-.63-1.374-3.408-1.661-4.01-.286-.6-.744-1.059-1.46-1.116-.831-.086-1.489.2-1.89.945a1.826 1.826 0 00-.057 1.546c1.689 4.01 3.379 7.99 5.068 11.97a322.259 322.259 0 013.007 7.245c.458 1.117 1.575 1.66 2.577 1.174.43-.2.716-.516.888-.945.916-2.12 1.832-4.21 2.692-6.357m14.374-13.745c0-.973-.916-2.005-1.918-1.976-.945.029-1.747.974-1.747 1.89.028 6.472.028 12.915 0 19.386 0 .917.687 1.833 1.689 1.89a1.842 1.842 0 001.948-1.69c.114-1.46.028-2.891.057-4.352 0-.4.086-.716.401-1.002.744-.716 1.46-1.46 2.176-2.234.859-.887 1.002-.658 1.632.115.917 1.174 1.833 2.377 2.749 3.55M23.461 17.71c1.718-4.095-.544-8.734-5.154-9.851-.43-.115-.888-.086-1.346-.115-2.09-.086-4.181-.114-6.271 0C9.573 7.83 9 8.546 9 9.634c0 2.692.086 9.422.086 12.114"/><path d="M21.37 20.458c-1.403 1.088-2.978 1.547-4.696 1.604-1.03.028-2.09 0-3.121 0-.63 0-.773.143-.773.773v6.3c0 1.288-1.146 2.205-2.291 1.89-.802-.2-1.403-.888-1.403-1.747V21.69m139.17 1.775c.887-2.09 3.522-8.076 4.409-10.166.401-.974.859-1.919 1.232-2.893.343-.887-.058-1.775-.945-2.233-.859-.43-1.947-.086-2.32.573-.343.572-.544 1.202-.802 1.832-1.202 2.778-2.405 5.556-3.579 8.362-.515 1.26-1.031 2.176-1.546 3.436-.172.43-.458.946-.888 1.518M97.141 30.48c-.83-2.004-2.004-5.326-2.691-7.388-.344-1.06-.344-1.06-1.46-1.06h-3.523c-.63 0-.773.144-.773.774v6.3c0 .801-.344 1.431-1.06 1.775-.658.315-1.346.258-1.947-.2-.43-.344-.687-.774-.687-1.346v-4.238c0-.2.028-.373-.057-.544m161.333-8.103c0 .286-.029.973 0 1.288v11.54c0 1.06-.774 1.833-1.833 1.833-.974 0-1.747-.802-1.747-1.833v-8.963m35.395-8.877c1.145-.057 1.689-.802 1.861-1.489a1.788 1.788 0 00-.802-1.947c-.401-.258-.859-.344-1.346-.344h-10.28c-.601 0-1.174.143-1.604.573-.343.315-.515.716-.515 1.231.029.974 0 1.919 0 2.893M76.379 9.577v19.815c0 .83.63 1.604 1.747 1.661.945.057 1.918-.63 1.947-1.718.029-1.833-.057-3.66-.057-5.527m90.805 3.351c.83 1.06 1.575 2.176 2.463 3.178.744.86 1.66.974 2.462.344.859-.716 1.002-1.747.344-2.606-2.205-2.892-4.41-5.756-6.615-8.648-.115-.172-.258-.343-.401-.515-.372-.487-.401-.602.057-1.06 2.205-2.205 4.439-4.381 6.644-6.586.515-.515.859-1.088.716-1.833-.115-.716-.516-1.174-1.174-1.432-.659-.257-1.289-.143-1.776.344a305.034 305.034 0 00-4.324 4.238c-1.861 1.861-3.722 3.751-5.584 5.613-.2.2-.458.372-.773.343M16.99 11.438c1.46-.086 3.007 1.117 3.293 2.892.287 1.862-1.06 3.752-2.978 3.895-1.317.114-2.663.028-3.98.028-.43 0-.63-.171-.63-.6v-6.215h2.77m73.2 4.582v1.603c0 .43.2.601.63.601 1.346 0 2.692.086 4.037-.028 1.404-.115 2.664-1.174 2.893-2.978.258-2.005-1.375-3.837-3.293-3.78-1.146.028-2.32 0-3.465 0-.63 0-.802.143-.773.773v1.174"/><path d="M265.405 12.154v17.01c0 1.173.716 1.89 1.89 1.89h5.355m-20.389-13.689c-1.747-2.405-3.523-4.782-5.241-7.187-.429-.602-.801-1.26-1.346-1.776-.544-.515-1.202-.572-1.89-.286-.715.286-1.059.802-1.059 1.546v6.902M76.38 9.577a1.787 1.787 0 011.718-1.833c1.06-.029 1.947.802 1.947 1.833v12.17m129.749 7.703c.429-1.49-.229-2.72-1.518-3.15-1.747-.602-3.207.658-3.322 2.205-.086 1.517 1.461 3.035 3.265 2.462m-67.981-15.005c.916 2.148 1.833 4.267 2.749 6.415.143.315.401.945.83 1.518m18.756-14.031c.144 1.861.258 6.786.287 8.59m24.198 3.522c1.059 0 6.013-.085 7.015-.086m-3.037-6.678c.529.918 2.535 5.81 3.037 6.678m-5.091-4.625l-1.925 4.625m65.862-3.865c.573.716 3.322 4.352 3.838 5.01"/></g><defs><filter id="filter0_d" x=".982" y=".127" width="287.037" height="40.601" filterUnits="userSpaceOnUse" color-interpolation-filters="sRGB"><feFlood flood-opacity="0" result="BackgroundImageFix"/><feColorMatrix in="SourceAlpha" values="0 0 0 0 0 0 0 0 0 0 0 0 0 0 0 0 0 0 127 0"/><feOffset dy="1.145"/><feGaussianBlur stdDeviation="3.866"/><feColorMatrix values="0 0 0 0 1 0 0 0 0 0 0 0 0 0 0 0 0 0 1 0"/><feBlend in2="BackgroundImageFix" result="effect1_dropShadow"/><feBlend in="SourceGraphic" in2="effect1_dropShadow" result="shape"/></filter></defs></svg>