<svg width="35" height="35" fill="none" xmlns="http://www.w3.org/2000/svg"><path d="M17.5 0C10.715 0 5.195 5.52 5.195 12.305c0 2.292.635 4.53 1.837 6.47l9.768 15.74c.187.302.516.485.87.485h.009c.358-.003.688-.192.872-.498l9.518-15.893a12.29 12.29 0 001.736-6.304C29.805 5.52 24.285 0 17.5 0zm8.81 17.556l-8.655 14.449-8.88-14.31c-1-1.616-1.543-3.48-1.543-5.39 0-5.654 4.614-10.268 10.268-10.268 5.654 0 10.26 4.614 10.26 10.268 0 1.854-.506 3.67-1.45 5.25z" fill="#fff"/><path d="M17.5 6.152a6.16 6.16 0 00-6.152 6.153 6.144 6.144 0 006.152 6.152c3.48 0 6.152-2.819 6.152-6.152A6.16 6.16 0 0017.5 6.152zm0 10.268a4.118 4.118 0 01-4.115-4.115A4.13 4.13 0 0117.5 8.189c2.262 0 4.108 1.854 4.108 4.116 0 2.234-1.799 4.115-4.108 4.115z" fill="#fff"/></svg>