<svg width="38" height="38" fill="none" xmlns="http://www.w3.org/2000/svg"><path fill-rule="evenodd" clip-rule="evenodd" d="M0 19C0 8.507 8.507 0 19 0s19 8.507 19 19-8.507 19-19 19S0 29.493 0 19zm19.994 6.235s.366-.04.553-.237c.171-.181.166-.523.166-.523s-.023-1.595.731-1.83c.744-.232 1.698 1.542 2.711 2.224.765.516 1.346.403 1.346.403l2.707-.037s1.416-.085.745-1.178c-.056-.09-.392-.809-2.012-2.286-1.698-1.546-1.47-1.296.574-3.97 1.244-1.63 1.742-2.624 1.587-3.049-.148-.407-1.064-.299-1.064-.299l-3.047.019s-.226-.03-.394.068c-.163.096-.27.321-.27.321s-.481 1.26-1.124 2.332c-1.357 2.262-1.9 2.381-2.122 2.241-.516-.328-.387-1.315-.387-2.017 0-2.192.339-3.106-.66-3.342-.33-.079-.574-.13-1.422-.14-1.087-.01-2.007.005-2.528.255-.348.166-.615.538-.452.56.202.025.658.12.9.443.312.417.3 1.353.3 1.353s.18 2.58-.419 2.9c-.41.22-.973-.228-2.183-2.28a18.925 18.925 0 01-1.088-2.213s-.09-.216-.251-.333a1.27 1.27 0 00-.468-.185l-2.896.018s-.435.012-.594.198c-.142.164-.011.506-.011.506s2.267 5.206 4.834 7.83c2.354 2.406 5.027 2.248 5.027 2.248h1.21z" fill="#fff"/></svg>